<svg width="134" height="45" viewBox="0 0 134 45" fill="none" xmlns="http://www.w3.org/2000/svg">
<path d="M19.835 4.29C22.255 4.29 24.235 4.65666 25.775 5.39C27.3517 6.08667 28.745 6.91167 29.955 7.865C30.6883 8.415 31.2383 8.48833 31.605 8.085C32.0083 7.645 32.2833 6.63667 32.43 5.06H33.695C33.6217 6.49 33.5667 8.23166 33.53 10.285C33.4933 12.3017 33.475 14.9967 33.475 18.37H32.21C32.0267 16.6833 31.7883 15.2533 31.495 14.08C31.2017 12.87 30.7983 11.8067 30.285 10.89C29.7717 9.97333 29.0383 9.14833 28.085 8.415C27.1683 7.49833 26.105 6.82 24.895 6.38C23.685 5.94 22.42 5.72 21.1 5.72C19.12 5.72 17.4333 6.25166 16.04 7.315C14.6467 8.34166 13.51 9.75333 12.63 11.55C11.7867 13.3467 11.1633 15.3817 10.76 17.655C10.3567 19.8917 10.155 22.22 10.155 24.64C10.155 27.0967 10.3567 29.4617 10.76 31.735C11.2 33.9717 11.86 35.97 12.74 37.73C13.6567 39.49 14.83 40.8833 16.26 41.91C17.69 42.9367 19.3767 43.45 21.32 43.45C22.53 43.45 23.74 43.23 24.95 42.79C26.1967 42.3133 27.26 41.635 28.14 40.755C29.57 39.655 30.5417 38.2983 31.055 36.685C31.5683 35.035 31.9533 32.8533 32.21 30.14H33.475C33.475 33.6233 33.4933 36.4467 33.53 38.61C33.5667 40.7367 33.6217 42.5333 33.695 44H32.43C32.2833 42.4233 32.0267 41.4333 31.66 41.03C31.33 40.6267 30.7617 40.6817 29.955 41.195C28.5983 42.1483 27.15 42.9917 25.61 43.725C24.1067 44.4217 22.1633 44.77 19.78 44.77C15.8933 44.77 12.4833 43.9817 9.55 42.405C6.65333 40.8283 4.39833 38.555 2.785 35.585C1.17167 32.615 0.365 29.04 0.365 24.86C0.365 20.7533 1.19 17.16 2.84 14.08C4.52667 11 6.81833 8.59833 9.715 6.875C12.6483 5.15166 16.0217 4.29 19.835 4.29ZM45.3593 44.385C42.9026 44.385 41.1243 43.7433 40.0243 42.46C38.9243 41.1767 38.3743 39.6183 38.3743 37.785C38.3743 36.2083 38.7226 34.925 39.4193 33.935C40.1526 32.945 41.0876 32.1383 42.2243 31.515C43.361 30.855 44.5526 30.3233 45.7993 29.92C47.0826 29.48 48.2926 29.0583 49.4293 28.655C50.6026 28.215 51.5376 27.72 52.2343 27.17C52.9676 26.62 53.3343 25.9233 53.3343 25.08V20.79C53.3343 19.8367 53.1693 18.9933 52.8393 18.26C52.546 17.49 52.0693 16.9033 51.4093 16.5C50.786 16.0967 49.961 15.895 48.9343 15.895C48.201 15.895 47.4676 16.005 46.7343 16.225C46.001 16.4083 45.396 16.7383 44.9193 17.215C45.946 17.5817 46.7343 18.15 47.2843 18.92C47.871 19.6533 48.1643 20.4967 48.1643 21.45C48.1643 22.6967 47.7243 23.6867 46.8443 24.42C46.001 25.1533 44.9926 25.52 43.8193 25.52C42.4993 25.52 41.491 25.1167 40.7943 24.31C40.1343 23.4667 39.8043 22.4583 39.8043 21.285C39.8043 20.2217 40.061 19.3417 40.5743 18.645C41.1243 17.9483 41.876 17.2883 42.8293 16.665C43.856 16.0783 45.0843 15.62 46.5143 15.29C47.981 14.96 49.5576 14.795 51.2443 14.795C52.931 14.795 54.4526 14.9783 55.8093 15.345C57.166 15.675 58.3026 16.2983 59.2193 17.215C60.0626 18.0583 60.6126 19.1033 60.8693 20.35C61.126 21.56 61.2543 23.1 61.2543 24.97V39.93C61.2543 40.81 61.346 41.4333 61.5293 41.8C61.7126 42.1667 62.0243 42.35 62.4643 42.35C62.831 42.35 63.1793 42.2583 63.5093 42.075C63.8393 41.8917 64.151 41.6717 64.4443 41.415L64.9943 42.35C64.2243 43.01 63.326 43.5233 62.2993 43.89C61.3093 44.22 60.191 44.385 58.9443 44.385C56.7443 44.385 55.2776 43.945 54.5443 43.065C53.8476 42.1483 53.481 41.1033 53.4443 39.93C52.5276 41.4333 51.391 42.5517 50.0343 43.285C48.7143 44.0183 47.156 44.385 45.3593 44.385ZM49.5943 40.865C50.291 40.865 50.9326 40.7 51.5193 40.37C52.1426 40.04 52.7476 39.4533 53.3343 38.61V27.335C52.8943 28.0683 52.271 28.6917 51.4643 29.205C50.6943 29.6817 49.8876 30.2133 49.0443 30.8C48.2376 31.35 47.5593 32.065 47.0093 32.945C46.4593 33.825 46.1843 34.9983 46.1843 36.465C46.1843 38.0417 46.5143 39.1783 47.1743 39.875C47.8343 40.535 48.641 40.865 49.5943 40.865ZM85.4311 14.795C88.2911 14.795 90.6561 15.9683 92.5261 18.315C94.4328 20.625 95.3861 24.2 95.3861 29.04C95.3861 32.8533 94.7994 35.915 93.6261 38.225C92.4894 40.535 90.9678 42.2033 89.0611 43.23C87.1544 44.2567 85.0644 44.77 82.7911 44.77C81.2878 44.77 79.8944 44.5133 78.6111 44C77.3278 43.4867 76.2278 42.6433 75.3111 41.47L76.0811 41.195C76.7411 42.0017 77.5111 42.6067 78.3911 43.01C79.3078 43.4133 80.2061 43.615 81.0861 43.615C83.1028 43.615 84.6061 42.4783 85.5961 40.205C86.5861 37.9317 87.0811 34.4667 87.0811 29.81C87.0811 26.6567 86.8794 24.1633 86.4761 22.33C86.1094 20.46 85.5594 19.14 84.8261 18.37C84.0928 17.5633 83.2128 17.16 82.1861 17.16C80.9028 17.16 79.7294 17.6917 78.6661 18.755C77.6028 19.7817 76.9978 21.23 76.8511 23.1L76.5761 21.175C77.2361 19.085 78.3544 17.5083 79.9311 16.445C81.5078 15.345 83.3411 14.795 85.4311 14.795ZM77.0161 0.989996V42.9C76.0994 42.7533 75.1644 42.7533 74.2111 42.9C73.2578 43.0467 72.3778 43.3033 71.5711 43.67C70.7644 44 70.0861 44.4033 69.5361 44.88L68.7111 44.385C68.8578 43.8717 68.9494 43.3583 68.9861 42.845C69.0594 42.3317 69.0961 41.8183 69.0961 41.305V7.59C69.0961 5.94 68.8394 4.73 68.3261 3.96C67.8494 3.15333 66.9328 2.75 65.5761 2.75V1.595C66.7494 1.705 67.8861 1.76 68.9861 1.76C70.4894 1.76 71.9194 1.705 73.2761 1.595C74.6328 1.44833 75.8794 1.24666 77.0161 0.989996ZM111.769 5.005V6.16C110.119 6.16 109.056 6.325 108.579 6.655C108.139 6.94833 108.176 7.48 108.689 8.25L130.469 40.095C131.203 41.1217 131.789 41.8183 132.229 42.185C132.669 42.5517 133.256 42.7717 133.989 42.845V44C133.256 43.9633 132.193 43.9267 130.799 43.89C129.406 43.8167 127.958 43.78 126.454 43.78C124.804 43.78 123.118 43.8167 121.394 43.89C119.708 43.9267 118.443 43.9633 117.599 44V42.845C119.286 42.845 120.368 42.735 120.844 42.515C121.358 42.2583 121.358 41.745 120.844 40.975L99.0092 8.91C98.3126 7.84666 97.7442 7.13166 97.3042 6.765C96.8642 6.39833 96.2592 6.19666 95.4892 6.16V5.005C96.2592 5.04167 97.3776 5.09667 98.8442 5.17C100.348 5.20666 101.851 5.225 103.354 5.225C105.004 5.225 106.581 5.20666 108.084 5.17C109.624 5.09667 110.853 5.04167 111.769 5.005ZM112.264 24.42C112.264 24.42 112.338 24.6583 112.484 25.135C112.631 25.6117 112.704 25.85 112.704 25.85L107.204 33.385C105.738 35.365 104.913 37.0517 104.729 38.445C104.546 39.8017 104.858 40.865 105.664 41.635C106.508 42.3683 107.736 42.79 109.349 42.9V44C108.653 43.9633 107.736 43.945 106.599 43.945C105.463 43.9083 104.344 43.89 103.244 43.89C102.144 43.8533 101.283 43.835 100.659 43.835C98.4592 43.835 96.7726 43.89 95.5992 44V42.9C96.8826 42.46 98.1842 41.69 99.5042 40.59C100.824 39.4533 102.181 37.9867 103.574 36.19L112.264 24.42ZM131.514 5.06V6.16C130.304 6.49 129.094 7.18667 127.884 8.25C126.711 9.31333 125.611 10.5417 124.584 11.935L115.674 23.815C115.674 23.815 115.601 23.5767 115.454 23.1C115.344 22.6233 115.289 22.385 115.289 22.385L120.954 14.74C123.044 12.0633 123.888 9.99167 123.484 8.525C123.081 7.05833 121.761 6.27 119.524 6.16V5.06C120.588 5.09667 121.779 5.13333 123.099 5.17C124.419 5.20666 125.538 5.225 126.454 5.225C128.654 5.225 130.341 5.17 131.514 5.06Z" fill="#0A0434"/>
</svg>
