<svg width="874" height="257" viewBox="0 0 874 257" fill="none" xmlns="http://www.w3.org/2000/svg">
<path d="M395.242 234.808V192.322H401.751C404.644 192.322 406.958 192.535 408.694 192.961C410.43 193.387 411.877 194.169 413.106 195.164C414.336 196.229 415.276 197.579 415.999 199.213C416.722 200.847 417.084 202.481 417.084 204.187C417.084 207.242 415.927 209.799 413.54 211.931C415.854 212.712 417.663 214.062 418.964 215.981C420.339 217.899 420.99 220.101 420.99 222.659C420.99 225.998 419.76 228.769 417.373 231.114C415.927 232.535 414.336 233.529 412.528 234.027C410.575 234.524 408.116 234.808 405.15 234.808H395.242ZM403.776 210.581C406.235 210.581 407.971 210.084 409.128 209.018C410.285 207.952 410.792 206.389 410.792 204.329C410.792 202.339 410.213 200.776 409.056 199.782C407.899 198.716 406.235 198.219 403.993 198.219H401.679V210.581H403.776ZM401.751 228.769H405.801C408.767 228.769 410.936 228.201 412.311 227.064C413.757 225.856 414.48 224.293 414.48 222.375C414.48 220.528 413.757 218.965 412.383 217.757C411.009 216.549 408.55 215.909 405.078 215.909H401.751V228.769Z" fill="#F3F9FF"/>
<path d="M452.813 222.872H433.285C433.429 225.075 434.153 226.851 435.455 228.13C436.756 229.409 438.42 230.048 440.445 230.048C442.036 230.048 443.338 229.693 444.351 228.982C445.363 228.272 446.52 226.922 447.822 224.933L453.174 227.845C452.379 229.195 451.511 230.403 450.57 231.398C449.63 232.393 448.69 233.174 447.605 233.813C446.593 234.453 445.435 234.879 444.206 235.234C442.976 235.59 441.675 235.661 440.228 235.661C436.178 235.661 432.923 234.382 430.392 231.824C427.933 229.266 426.703 225.785 426.703 221.522C426.703 217.259 427.933 213.849 430.319 211.22C432.706 208.663 435.888 207.313 439.866 207.313C443.917 207.313 447.027 208.592 449.413 211.078C451.728 213.565 452.885 217.046 452.885 221.451L452.813 222.872ZM446.303 217.828C445.435 214.56 443.338 212.854 439.939 212.854C439.143 212.854 438.42 212.997 437.769 213.21C437.118 213.423 436.467 213.778 435.961 214.204C435.382 214.631 434.948 215.128 434.514 215.767C434.08 216.407 433.791 217.046 433.646 217.828H446.303Z" fill="#F3F9FF"/>
<path d="M466.699 213.778V234.808H460.407V213.778H457.731V208.023H460.407V198.219H466.699V208.023H471.617V213.778H466.699Z" fill="#F3F9FF"/>
<path d="M482.393 213.778V234.808H476.101V213.778H473.425V208.023H476.101V198.219H482.393V208.023H487.312V213.778H482.393Z" fill="#F3F9FF"/>
<path d="M516.893 222.872H497.365C497.509 225.075 498.233 226.851 499.535 228.13C500.836 229.409 502.5 230.048 504.525 230.048C506.116 230.048 507.418 229.693 508.431 228.982C509.443 228.272 510.6 226.922 511.902 224.933L517.254 227.845C516.459 229.195 515.591 230.403 514.65 231.398C513.71 232.393 512.77 233.174 511.685 233.813C510.673 234.453 509.515 234.879 508.286 235.234C507.056 235.59 505.754 235.661 504.308 235.661C500.258 235.661 497.003 234.382 494.472 231.824C492.013 229.266 490.783 225.785 490.783 221.522C490.783 217.259 492.013 213.849 494.399 211.22C496.786 208.663 499.968 207.313 503.946 207.313C507.997 207.313 511.107 208.592 513.493 211.078C515.808 213.565 516.965 217.046 516.965 221.451L516.893 222.872ZM510.456 217.828C509.588 214.56 507.49 212.854 504.091 212.854C503.295 212.854 502.572 212.997 501.921 213.21C501.27 213.423 500.619 213.778 500.113 214.204C499.535 214.631 499.101 215.128 498.667 215.767C498.233 216.407 497.943 217.046 497.799 217.828H510.456Z" fill="#F3F9FF"/>
<path d="M523.836 208.023H530.128V210.439C531.285 209.231 532.298 208.449 533.238 208.023C534.178 207.597 535.263 207.313 536.493 207.313C538.156 207.313 539.892 207.881 541.7 208.876L538.807 214.56C537.577 213.707 536.42 213.281 535.335 213.281C531.864 213.281 530.2 215.838 530.2 220.954V234.879H523.908V208.023H523.836Z" fill="#F3F9FF"/>
<path d="M584.227 209.16V217.401C582.781 215.696 581.479 214.489 580.394 213.849C579.309 213.21 577.935 212.854 576.416 212.854C574.029 212.854 572.077 213.636 570.485 215.27C568.894 216.904 568.099 218.965 568.099 221.38C568.099 223.867 568.822 225.927 570.341 227.561C571.86 229.195 573.812 229.977 576.199 229.977C577.718 229.977 579.02 229.622 580.177 228.982C581.262 228.343 582.636 227.135 584.155 225.359V233.529C581.623 234.808 579.02 235.519 576.488 235.519C572.294 235.519 568.75 234.169 565.929 231.469C563.108 228.769 561.662 225.43 561.662 221.451C561.662 217.473 563.108 214.062 566.001 211.291C568.894 208.521 572.438 207.171 576.561 207.171C579.309 207.242 581.84 207.881 584.227 209.16Z" fill="#F3F9FF"/>
<path d="M591.821 188.343H598.114V210.226C600.356 208.236 602.815 207.242 605.563 207.242C608.673 207.242 611.132 208.236 612.94 210.155C614.531 211.86 615.327 214.56 615.327 218.325V234.737H609.035V218.965C609.035 216.833 608.673 215.27 607.877 214.275C607.082 213.281 605.852 212.854 604.117 212.854C601.947 212.854 600.356 213.494 599.488 214.844C598.62 216.194 598.186 218.538 598.186 221.806V234.737H591.894V188.343H591.821Z" fill="#F3F9FF"/>
<path d="M621.981 221.238C621.981 217.401 623.427 214.062 626.176 211.362C628.996 208.663 632.468 207.313 636.518 207.313C640.568 207.313 644.04 208.663 646.861 211.433C649.681 214.133 651.056 217.544 651.056 221.522C651.056 225.572 649.609 228.911 646.861 231.611C644.04 234.311 640.568 235.661 636.446 235.661C632.323 235.661 628.924 234.311 626.176 231.54C623.355 228.769 621.981 225.359 621.981 221.238ZM628.418 221.309C628.418 224.009 629.141 226.14 630.588 227.632C632.106 229.195 634.059 229.977 636.518 229.977C638.977 229.977 640.93 229.195 642.449 227.632C643.895 226.069 644.691 224.009 644.691 221.38C644.691 218.751 643.968 216.691 642.449 215.128C640.93 213.565 638.977 212.783 636.518 212.783C634.131 212.783 632.179 213.565 630.66 215.128C629.141 216.762 628.418 218.822 628.418 221.309Z" fill="#F3F9FF"/>
<path d="M656.841 196.869C656.841 195.803 657.275 194.879 658.071 194.027C658.867 193.245 659.807 192.819 660.964 192.819C662.121 192.819 663.061 193.245 663.857 194.027C664.653 194.808 665.087 195.732 665.087 196.869C665.087 198.005 664.653 198.929 663.857 199.711C663.061 200.492 662.121 200.918 660.964 200.918C659.807 200.918 658.867 200.492 658.071 199.711C657.203 198.929 656.841 198.005 656.841 196.869ZM664.074 208.023V234.808H657.782V208.023H664.074Z" fill="#F3F9FF"/>
<path d="M693.293 209.16V217.401C691.847 215.696 690.545 214.489 689.46 213.849C688.375 213.21 687.001 212.854 685.482 212.854C683.095 212.854 681.143 213.636 679.552 215.27C677.96 216.904 677.165 218.965 677.165 221.38C677.165 223.867 677.888 225.927 679.407 227.561C680.926 229.195 682.878 229.977 685.265 229.977C686.784 229.977 688.086 229.622 689.243 228.982C690.328 228.343 691.702 227.135 693.221 225.359V233.529C690.69 234.808 688.086 235.519 685.555 235.519C681.36 235.519 677.816 234.169 674.995 231.469C672.174 228.769 670.728 225.43 670.728 221.451C670.728 217.473 672.174 214.062 675.067 211.291C677.96 208.521 681.504 207.171 685.627 207.171C688.375 207.242 690.907 207.881 693.293 209.16Z" fill="#F3F9FF"/>
<path d="M724.248 222.872H704.721C704.865 225.075 705.589 226.851 706.89 228.13C708.192 229.409 709.856 230.048 711.881 230.048C713.472 230.048 714.774 229.693 715.786 228.982C716.799 228.272 717.956 226.922 719.258 224.933L724.61 227.845C723.814 229.195 722.947 230.403 722.006 231.398C721.066 232.393 720.126 233.174 719.041 233.813C718.028 234.453 716.871 234.879 715.642 235.234C714.412 235.59 713.11 235.661 711.664 235.661C707.614 235.661 704.359 234.382 701.828 231.824C699.369 229.266 698.139 225.785 698.139 221.522C698.139 217.259 699.369 213.849 701.755 211.22C704.142 208.663 707.324 207.313 711.302 207.313C715.352 207.313 718.462 208.592 720.849 211.078C723.164 213.565 724.321 217.046 724.321 221.451L724.248 222.872ZM717.811 217.828C716.944 214.56 714.846 212.854 711.447 212.854C710.651 212.854 709.928 212.997 709.277 213.21C708.626 213.423 707.975 213.778 707.469 214.204C706.89 214.631 706.456 215.128 706.023 215.767C705.661 216.407 705.299 217.046 705.155 217.828H717.811Z" fill="#F3F9FF"/>
<path d="M458.522 26.7736C467.31 26.7736 474.5 28.099 480.092 30.7498C485.818 33.2681 490.878 36.2504 495.272 39.6965C497.935 41.6846 499.932 41.9497 501.263 40.4917C502.728 38.9012 503.727 35.2563 504.259 29.557H508.853C508.587 34.7261 508.387 41.0219 508.254 48.4443C508.121 55.7341 508.054 65.476 508.054 77.6699H503.46C502.795 71.5729 501.929 66.4038 500.864 62.1624C499.799 57.7885 498.334 53.9448 496.47 50.6312C494.606 47.3177 491.943 44.3354 488.481 41.6846C485.152 38.371 481.291 35.919 476.897 34.3285C472.503 32.738 467.909 31.9427 463.116 31.9427C455.926 31.9427 449.801 33.8646 444.741 37.7083C439.681 41.4195 435.554 46.5224 432.358 53.017C429.296 59.5116 427.032 66.8677 425.567 75.0853C424.103 83.1704 423.371 91.5869 423.371 100.335C423.371 109.215 424.103 117.764 425.567 125.982C427.165 134.067 429.562 141.29 432.758 147.652C436.086 154.014 440.347 159.051 445.54 162.762C450.733 166.473 456.858 168.329 463.915 168.329C468.309 168.329 472.703 167.534 477.097 165.943C481.624 164.22 485.485 161.768 488.681 158.587C493.873 154.611 497.402 149.707 499.266 143.875C501.13 137.91 502.528 130.024 503.46 120.216H508.054C508.054 132.808 508.121 143.013 508.254 150.833C508.387 158.521 508.587 165.015 508.853 170.317H504.259C503.727 164.618 502.795 161.039 501.463 159.581C500.265 158.123 498.201 158.322 495.272 160.178C490.345 163.624 485.086 166.672 479.493 169.323C474.034 171.841 466.977 173.101 458.322 173.101C444.209 173.101 431.826 170.251 421.174 164.552C410.655 158.852 402.466 150.635 396.607 139.899C390.749 129.163 387.819 116.24 387.819 101.13C387.819 86.2852 390.815 73.296 396.807 62.1624C402.932 51.0288 411.254 42.3473 421.773 36.1178C432.425 29.8883 444.675 26.7736 458.522 26.7736Z" fill="white"/>
<path d="M551.21 171.709C542.289 171.709 535.831 169.389 531.837 164.75C527.842 160.111 525.845 154.478 525.845 147.851C525.845 142.152 527.11 137.513 529.64 133.934C532.303 130.356 535.698 127.44 539.826 125.186C543.953 122.801 548.281 120.879 552.808 119.421C557.468 117.83 561.862 116.306 565.99 114.848C570.251 113.258 573.646 111.468 576.176 109.48C578.839 107.492 580.17 104.974 580.17 101.925V86.4177C580.17 82.9716 579.571 79.9231 578.373 77.2723C577.308 74.4889 575.577 72.3682 573.18 70.9102C570.916 69.4523 567.921 68.7233 564.192 68.7233C561.529 68.7233 558.866 69.1209 556.203 69.9162C553.54 70.5789 551.343 71.7718 549.612 73.4948C553.341 74.8202 556.203 76.8746 558.201 79.658C560.331 82.3089 561.396 85.3574 561.396 88.8035C561.396 93.3099 559.798 96.8886 556.603 99.5394C553.54 102.19 549.879 103.516 545.618 103.516C540.824 103.516 537.163 102.058 534.633 99.1418C532.236 96.0933 531.038 92.4484 531.038 88.207C531.038 84.3633 531.97 81.1823 533.834 78.664C535.831 76.1457 538.561 73.7599 542.023 71.5067C545.751 69.386 550.212 67.7292 555.404 66.5363C560.73 65.3434 566.456 64.747 572.581 64.747C578.706 64.747 584.231 65.4097 589.158 66.7351C594.084 67.928 598.212 70.1812 601.541 73.4948C604.603 76.5433 606.601 80.3207 607.533 84.8272C608.465 89.2011 608.931 94.7679 608.931 101.528V155.605C608.931 158.786 609.264 161.039 609.929 162.365C610.595 163.69 611.727 164.353 613.325 164.353C614.656 164.353 615.921 164.021 617.119 163.359C618.318 162.696 619.45 161.901 620.515 160.973L622.512 164.353C619.716 166.738 616.454 168.594 612.726 169.919C609.13 171.112 605.069 171.709 600.542 171.709C592.553 171.709 587.227 170.118 584.564 166.937C582.034 163.624 580.703 159.846 580.57 155.605C577.241 161.039 573.113 165.082 568.187 167.733C563.393 170.383 557.735 171.709 551.21 171.709ZM566.589 158.985C569.119 158.985 571.449 158.388 573.579 157.195C575.843 156.003 578.04 153.882 580.17 150.833V110.077C578.573 112.727 576.309 114.981 573.38 116.836C570.584 118.559 567.654 120.481 564.592 122.602C561.662 124.59 559.199 127.175 557.202 130.356C555.205 133.537 554.206 137.778 554.206 143.08C554.206 148.779 555.404 152.888 557.801 155.406C560.198 157.792 563.127 158.985 566.589 158.985Z" fill="white"/>
<path d="M696.725 64.747C707.111 64.747 715.699 68.9884 722.49 77.4711C729.414 85.8213 732.876 98.7442 732.876 116.24C732.876 130.024 730.745 141.091 726.485 149.442C722.357 157.792 716.831 163.823 709.907 167.534C702.984 171.245 695.394 173.101 687.139 173.101C681.68 173.101 676.62 172.173 671.96 170.317C667.299 168.462 663.305 165.413 659.976 161.172L662.772 160.178C665.169 163.094 667.965 165.281 671.161 166.738C674.489 168.196 677.752 168.925 680.947 168.925C688.27 168.925 693.73 164.817 697.325 156.599C700.92 148.381 702.717 135.856 702.717 119.023C702.717 107.625 701.985 98.6116 700.52 91.9845C699.189 85.2248 697.192 80.4533 694.529 77.6699C691.866 74.754 688.67 73.296 684.942 73.296C680.281 73.296 676.021 75.2178 672.159 79.0616C668.298 82.7728 666.101 88.0082 665.568 94.7679L664.57 87.8094C666.966 80.2545 671.028 74.5551 676.753 70.7114C682.478 66.7351 689.136 64.747 696.725 64.747ZM666.168 14.8447V166.341C662.839 165.811 659.443 165.811 655.982 166.341C652.52 166.871 649.324 167.799 646.395 169.124C643.465 170.317 641.002 171.775 639.005 173.498L636.009 171.709C636.542 169.853 636.875 167.998 637.008 166.142C637.274 164.286 637.407 162.431 637.407 160.575V38.7024C637.407 32.738 636.475 28.3641 634.611 25.5807C632.88 22.6647 629.551 21.2068 624.625 21.2068V17.0317C628.886 17.4293 633.013 17.6281 637.008 17.6281C642.467 17.6281 647.66 17.4293 652.586 17.0317C657.513 16.5015 662.04 15.7725 666.168 14.8447Z" fill="white"/>
<path d="M792.369 29.3581V33.5332C786.377 33.5332 782.516 34.1297 780.785 35.3226C779.187 36.3829 779.32 38.3048 781.184 41.0882L860.275 156.201C862.938 159.913 865.069 162.431 866.667 163.756C868.264 165.082 870.395 165.877 873.058 166.142V170.317C870.395 170.185 866.533 170.052 861.474 169.919C856.414 169.654 851.155 169.522 845.695 169.522C839.704 169.522 833.579 169.654 827.321 169.919C821.196 170.052 816.602 170.185 813.54 170.317V166.142C819.665 166.142 823.593 165.744 825.324 164.949C827.188 164.021 827.188 162.166 825.324 159.382L746.033 43.4739C743.503 39.6302 741.439 37.0456 739.841 35.7202C738.243 34.3948 736.046 33.6658 733.25 33.5332V29.3581C736.046 29.4907 740.107 29.6895 745.433 29.9546C750.893 30.0871 756.352 30.1534 761.811 30.1534C767.803 30.1534 773.528 30.0871 778.987 29.9546C784.58 29.6895 789.04 29.4907 792.369 29.3581ZM794.166 99.5394C794.166 99.5394 794.433 100.401 794.965 102.124C795.498 103.847 795.764 104.709 795.764 104.709L775.792 131.946C770.466 139.103 767.47 145.2 766.804 150.237C766.138 155.141 767.27 158.985 770.199 161.768C773.262 164.419 777.722 165.943 783.581 166.341V170.317C781.051 170.185 777.722 170.118 773.595 170.118C769.467 169.986 765.406 169.919 761.411 169.919C757.417 169.787 754.288 169.721 752.024 169.721C744.035 169.721 737.91 169.919 733.65 170.317V166.341C738.31 164.75 743.037 161.967 747.83 157.991C752.624 153.882 757.55 148.58 762.61 142.086L794.166 99.5394ZM864.07 29.557V33.5332C859.676 34.7261 855.282 37.2444 850.888 41.0882C846.627 44.9319 842.633 49.3721 838.905 54.4087L806.549 97.3525C806.549 97.3525 806.283 96.4909 805.75 94.7679C805.351 93.0448 805.151 92.1833 805.151 92.1833L825.723 64.5482C833.313 54.8726 836.375 47.3839 834.91 42.0822C833.446 36.7805 828.652 33.9309 820.53 33.5332V29.557C824.391 29.6895 828.719 29.822 833.512 29.9546C838.306 30.0871 842.367 30.1534 845.695 30.1534C853.684 30.1534 859.809 29.9546 864.07 29.557Z" fill="white"/>
<path fill-rule="evenodd" clip-rule="evenodd" d="M340.502 -4.0064e-07L340.502 257L336.791 257L336.791 -2.38419e-07L340.502 -4.0064e-07Z" fill="white"/>
<path fill-rule="evenodd" clip-rule="evenodd" d="M0 134.821V218.86C0 218.86 7.80143 235.661 23.4043 235.661C39.0071 235.661 46.1794 223.24 46.1794 223.24L47.3748 201.47L258.076 202.712L258.705 219.513C258.705 219.513 262.291 235.661 280.222 235.661C298.153 235.661 300.606 218.86 300.606 218.86V131.679C300.606 124.112 294.519 118.681 288.891 113.659C285.17 110.339 281.649 107.198 280.222 103.737C276.573 95.0427 267.01 68.8933 258.642 44.0515C250.275 19.2096 222.718 18.5559 222.718 18.5559H79.0209C58.6994 18.5559 45.4873 44.7052 45.4873 44.7052C45.4873 44.7052 28.2487 89.6167 23.9705 100.665C22.2478 105.114 18.0257 108.97 13.5965 113.016C7.02618 119.018 0 125.436 0 134.821ZM62.2857 83.8638C65.1798 77.3265 71.2825 55.2303 71.2825 55.2303C71.2825 55.2303 76.064 42.8094 89.2132 42.8094H211.96C211.96 42.8094 222.718 40.9136 229.324 53.3999C230.902 56.367 232.445 59.1962 233.911 61.8855L233.911 61.8861C238.581 70.4543 242.478 77.6033 244.298 83.2754C246.689 90.728 238.132 93.016 218.377 96.154C198.622 99.2919 180.817 99.488 155.085 99.488C147.874 99.488 139.952 99.7087 132.007 99.9301C111.598 100.499 91.035 101.072 81.978 97.919C81.4466 97.7341 80.9198 97.5513 80.3984 97.3704C68.5731 93.2679 59.5139 90.125 62.2857 83.8638ZM53.7293 161.92C62.0685 161.92 68.8288 154.895 68.8288 146.23C68.8288 137.565 62.0685 130.54 53.7293 130.54C45.39 130.54 38.6297 137.565 38.6297 146.23C38.6297 154.895 45.39 161.92 53.7293 161.92ZM105.948 152.437H198.748C198.748 152.437 195.162 161.132 186.794 162.374C178.426 163.616 118.531 162.374 118.531 162.374C118.531 162.374 108.339 163.616 105.948 152.437ZM268.205 146.23C268.205 154.895 261.445 161.92 253.106 161.92C244.767 161.92 238.006 154.895 238.006 146.23C238.006 137.565 244.767 130.54 253.106 130.54C261.445 130.54 268.205 137.565 268.205 146.23Z" fill="white"/>
</svg>
